# Blender 3.1.0
# www.blender.org
mtllib BALÇÃO-PRONTO.mtl
o Cube.039
v -2.155770 0.528974 0.644088
v -1.974659 0.528974 0.644088
v -2.155770 0.550215 0.644088
v -1.974659 0.550215 0.644088
v -1.957694 0.550215 0.661053
v -2.172736 0.550215 0.661053
v -1.957694 0.528974 0.661053
v -2.172736 0.528974 0.661053
v -1.974659 0.550215 0.322246
v -2.155770 0.550215 0.323380
v -2.155770 0.528974 0.323380
v -1.974659 0.528974 0.322246
v -1.957694 0.550215 0.322137
v -2.172736 0.550215 0.322823
v -2.172736 0.528974 0.322823
v -1.957694 0.528974 0.322137
v -1.974033 0.550215 -0.505988
v -2.155144 0.550215 -0.316107
v -1.974033 0.260447 -0.505988
v -1.974033 0.528974 -0.505988
v -2.155144 0.260447 -0.316107
v -2.155144 0.528974 -0.316107
v -2.413351 0.528974 -0.316107
v -2.413351 0.528974 -0.505988
v -2.413351 0.260447 -0.505988
v -2.413351 0.260447 -0.316107
v -2.413351 0.550215 -0.316107
v -2.413351 0.550215 -0.505988
v -2.430316 0.550215 -0.522954
v -2.430316 0.528974 -0.522954
v -2.430316 0.528974 -0.299141
v -2.430316 0.550215 -0.299141
v -1.957067 0.550215 -0.522954
v -2.172109 0.550215 -0.299141
v -2.172109 0.528974 -0.299141
v -1.957067 0.528974 -0.522954
v -2.155144 0.260447 0.323380
v -1.974033 0.550215 0.322246
v -2.155144 0.550215 0.323380
v -2.155144 0.528974 0.323380
v -1.974033 0.260447 0.322246
v -1.974033 0.528974 0.322246
v -1.957067 0.550215 0.322137
v -2.172109 0.550215 0.322823
v -2.172109 0.528974 0.322823
v -1.957067 0.528974 0.322137
v -2.154782 0.260447 0.661623
v -2.154782 0.528974 0.661623
v -1.975618 0.260447 0.661623
v -1.975618 0.528974 0.661623
v -2.154295 0.260447 0.623664
v -2.154295 0.528974 0.623664
v -1.975131 0.260447 0.622530
v -1.975131 0.528974 0.622530
v -2.154782 0.507984 0.661623
v -1.975618 0.507984 0.661623
v -2.154295 0.507984 0.623664
v -1.975131 0.507984 0.622530
v -2.154378 0.528974 0.610455
v -1.975214 0.528974 0.609321
v -2.154378 0.507984 0.610455
v -1.975214 0.507984 0.609321
vn -0.0000 1.0000 -0.0000
vn -0.0000 -1.0000 -0.0000
vn -1.0000 -0.0000 -0.0000
vn -0.0000 -0.0000 1.0000
vn -0.0063 -0.0000 -1.0000
vn 1.0000 -0.0000 -0.0000
vn -0.0064 -0.0000 -1.0000
vn 0.0328 -0.0000 -0.9995
vn -0.0000 -0.0000 -1.0000
vn 0.0063 -0.0000 1.0000
vn 0.0064 -0.0000 1.0000
vn -0.0328 -0.0000 0.9995
vn 0.9999 -0.0000 0.0124
vn -0.9999 -0.0000 -0.0128
vn 1.0000 -0.0000 -0.0063
vn -1.0000 -0.0000 0.0063
vt 0.833573 0.936581
vt 0.955254 0.936425
vt 0.832289 0.459589
vt 0.954331 0.458736
vt 0.966683 0.962087
vt 0.965684 0.447223
vt 0.980950 0.947815
vt 0.807834 0.948064
vt 0.822193 0.962286
vt 0.820777 0.448236
vt 0.966663 0.947815
vt 0.822173 0.948014
vt 0.955847 0.675609
vt 0.955207 0.705578
vt 0.833799 0.675698
vt 0.832991 0.705549
vt 0.832837 0.719892
vt 0.955237 0.719900
vt 0.967280 0.675603
vt 0.980950 0.719853
vt 0.966626 0.705553
vt 0.807040 0.719731
vt 0.822370 0.676153
vt 0.821574 0.705394
vt 0.821380 0.719681
vt 0.966663 0.719853
vt 0.364361 0.682575
vt 0.170946 0.980172
vt 0.251863 0.789876
vt 0.063516 0.867554
vt 0.229815 0.647957
vt 0.559696 0.378495
vt 0.130664 0.279344
vt 0.414848 0.477582
vt 0.388909 0.647957
vt 0.397049 0.682576
vt 0.203659 0.980172
vt 0.573939 0.478419
vt 0.650486 0.283308
vt 0.749670 0.590721
vt 0.769165 0.550363
vt 0.225910 0.370074
vt 0.590576 0.590721
vt 0.610071 0.550363
vt 0.219175 0.789876
vt 0.030806 0.867466
vt 0.035910 0.244266
vt 0.610071 0.397383
vt 0.251862 0.975543
vt 0.219174 0.942855
vt 0.388909 0.387675
vt 0.103370 0.244266
vt 0.397049 0.942855
vt 0.364361 0.975543
vt 0.229815 0.387675
vt 0.779925 0.378495
vt 0.103370 0.339667
vt 0.779925 0.283308
vt 0.035910 0.339667
vt 0.769165 0.397383
vt 0.251862 0.942855
vt 0.364361 0.942855
vt 0.374413 0.952907
vt 0.386997 0.952907
vt 0.374413 0.965492
vt 0.241810 0.965491
vt 0.229226 0.952907
vt 0.241810 0.952907
vt 0.374412 0.672524
vt 0.181006 0.990232
vt 0.241811 0.799927
vt 0.053423 0.857446
vt 0.229226 0.799927
vt 0.040854 0.857435
vt 0.386997 0.672524
vt 0.193600 0.990231
vt 0.749670 0.969596
vt 0.189037 0.351739
vt 0.546484 0.369869
vt 0.170949 0.489118
vt 0.063793 0.489199
vt 0.590576 0.969596
vt 0.031143 0.489050
vt 0.063644 0.476628
vt 0.029943 0.351739
vt 0.189037 0.459044
vt 0.545857 0.279078
vt 0.412265 0.968277
vt 0.203659 0.489091
vt 0.170969 0.476531
vt 0.029943 0.459044
vt 0.571357 0.969114
vt 0.181005 0.489156
vt 0.053752 0.489400
vt 0.041183 0.489389
vt 0.053560 0.476782
vt 0.193599 0.489156
vt 0.181037 0.476552
vt 0.781320 0.015743
vt 0.821995 0.128187
vt 0.781320 0.249539
vt 0.821995 0.361983
vt 0.691102 0.015743
vt 0.977985 0.128187
vt 0.691102 0.249539
vt 0.977985 0.361983
vt 0.822418 0.095138
vt 0.674201 0.013838
vt 0.748268 0.015743
vt 0.822418 0.395032
vt 0.748268 0.249539
vt 0.978409 0.094151
vt 0.518211 0.014935
vt 0.725141 0.015743
vt 0.978409 0.396019
vt 0.725141 0.249539
vt 0.781320 0.231263
vt 0.821995 0.343707
vt 0.691102 0.231263
vt 0.977985 0.343707
vt 0.675717 0.229353
vt 0.748268 0.231263
vt 0.725141 0.231263
vt 0.519727 0.230450
vt 0.822346 0.406533
vt 0.675926 0.259129
vt 0.736767 0.249539
vt 0.978336 0.407520
vt 0.519936 0.260226
vt 0.736642 0.249539
vt 0.675798 0.240854
vt 0.736767 0.231263
vt 0.736642 0.231263
vt 0.519808 0.241951
s 0
f 9/13/1 10/15/1 3/3/1 4/4/1
f 1/1/2 2/2/2 7/11/2 8/12/2
f 15/25/3 8/12/3 6/8/3 14/22/3
f 8/12/4 7/11/4 5/5/4 6/9/4
f 4/4/1 3/3/1 6/10/1 5/6/1
f 9/13/1 4/4/1 5/6/1 13/19/1
f 11/17/2 1/1/2 8/12/2 15/25/2
f 2/2/2 12/18/2 16/26/2 7/11/2
f 11/17/5 10/16/5 9/14/5 12/18/5
f 7/11/6 16/26/6 13/20/6 5/7/6
f 3/3/1 10/15/1 14/23/1 6/10/1
f 16/26/7 12/18/7 9/14/7 13/21/7
f 14/24/8 10/16/8 11/17/8 15/25/8
f 11/17/2 12/18/2 2/2/2 1/1/2
f 19/31/9 25/55/9 24/51/9 20/35/9
f 19/32/2 21/39/2 26/58/2 25/56/2
f 27/61/1 28/62/1 29/63/1 32/68/1
f 18/29/1 17/27/1 28/62/1 27/61/1
f 37/77/3 40/82/3 22/43/3 21/40/3
f 26/59/3 23/47/3 24/52/3 25/57/3
f 39/81/1 18/30/1 34/72/1 44/94/1
f 20/36/2 24/53/2 30/64/2 36/75/2
f 21/41/4 22/44/4 23/48/4 26/60/4
f 46/97/6 36/76/6 33/70/6 43/93/6
f 18/29/1 27/61/1 32/68/1 34/71/1
f 24/54/2 23/49/2 31/66/2 30/65/2
f 36/75/9 30/64/9 29/63/9 33/69/9
f 30/65/3 31/66/3 32/68/3 29/63/3
f 31/67/4 35/73/4 34/71/4 32/68/4
f 28/62/1 17/27/1 33/69/1 29/63/1
f 23/50/2 22/45/2 35/73/2 31/67/2
f 42/89/2 20/37/2 36/76/2 46/97/2
f 22/46/2 40/83/2 45/95/2 35/74/2
f 17/28/1 38/80/1 43/93/1 33/70/1
f 39/81/10 40/84/10 42/90/10 38/80/10
f 35/74/3 45/95/3 44/94/3 34/72/3
f 42/90/11 46/98/11 43/93/11 38/80/11
f 39/81/12 44/94/12 45/96/12 40/84/12
f 41/86/10 42/91/10 40/85/10 37/78/10
f 21/42/2 19/33/2 41/87/2 37/79/2
f 19/34/6 20/38/6 42/92/6 41/88/6
f 17/28/1 18/30/1 39/81/1 38/80/1
f 56/120/4 50/106/4 48/102/4 55/118/4
f 58/123/13 54/116/13 50/105/13 56/119/13
f 51/107/2 53/112/2 49/104/2 47/100/2
f 55/117/14 48/101/14 52/111/14 57/122/14
f 58/124/5 53/113/5 51/108/5 57/121/5
f 50/106/1 54/115/1 52/110/1 48/102/1
f 52/110/1 54/115/1 60/128/1 59/125/1
f 47/99/14 55/117/14 57/122/14 51/109/14
f 53/114/13 58/123/13 56/119/13 49/103/13
f 49/104/4 56/120/4 55/118/4 47/100/4
f 60/129/5 62/134/5 61/131/5 59/126/5
f 54/116/15 58/123/15 62/133/15 60/130/15
f 58/124/2 57/121/2 61/131/2 62/134/2
f 57/122/16 52/111/16 59/127/16 61/132/16
