# Blender v2.91.0 OBJ File: 'BAÇÃO_MAPEADO.blend'
# www.blender.org
mtllib BAÇÃO_MAPEADO.mtl
o Cube.001_Cube.002
v -0.617976 0.442365 0.192507
v -0.617976 1.069629 0.187322
v -0.617976 0.442365 -1.110148
v -0.617976 1.069629 -1.115333
v -0.137840 0.442365 0.192507
v -0.137840 1.069629 0.187322
v -0.137840 0.442365 -0.494306
v -0.137840 1.069629 -0.499491
v 2.158624 1.069629 -1.112872
v 2.158624 0.442365 -1.107687
v 2.158624 0.442365 -0.501427
v 2.158624 1.069629 -0.506612
v -0.677320 1.067339 0.245257
v -0.677320 1.175013 0.240072
v -0.677320 1.067339 -1.180482
v -0.677320 1.175013 -1.185667
v -0.082892 1.067339 0.245257
v -0.082892 1.175013 0.240072
v -0.082892 1.067339 -0.434962
v -0.082892 1.175013 -0.440147
v 2.225090 1.175013 -1.185667
v 2.225090 1.067339 -1.180482
v 2.225090 1.067339 -0.434962
v 2.225090 1.175013 -0.440147
v -0.677320 1.121176 0.242665
v -0.677320 1.121176 -1.183074
v -0.082892 1.121176 0.242665
v -0.082892 1.121176 -0.437554
v 2.225090 1.121176 -1.183074
v 2.225090 1.121176 -0.437554
vt 0.875599 0.664408
vt 0.876643 0.759234
vt 0.772812 0.759519
vt 0.771768 0.664693
vt 0.957967 0.885724
vt 0.958298 0.980555
vt 0.538540 0.982016
vt 0.538209 0.887185
vt 0.038053 0.021551
vt 0.151323 0.166835
vt 0.151323 0.328862
vt 0.038053 0.328862
vt 0.723681 0.337604
vt 0.836950 0.192320
vt 0.836950 0.499631
vt 0.723681 0.499631
vt 0.546806 0.759135
vt 0.546515 0.664304
vt 0.743435 0.662071
vt 0.743726 0.756903
vt 0.729754 0.540891
vt 0.729754 0.635722
vt 0.657168 0.635722
vt 0.657168 0.540891
vt 0.181918 0.335924
vt 0.181918 0.192901
vt 0.638778 0.537757
vt 0.639992 0.632581
vt 0.548340 0.632998
vt 0.547126 0.538174
vt 0.693085 0.022131
vt 0.693085 0.165155
vt 0.545700 0.871515
vt 0.545841 0.776684
vt 0.893017 0.777206
vt 0.892876 0.872038
vt 0.500130 0.503160
vt 0.499664 0.492269
vt 0.637236 0.493016
vt 0.637701 0.503907
vt 0.648137 0.493075
vt 0.637890 0.372795
vt 0.648791 0.372855
vt 0.035439 0.967429
vt 0.036023 0.956544
vt 0.324373 0.958111
vt 0.323790 0.968996
vt 0.187455 0.837142
vt 0.325027 0.837890
vt 0.349539 0.371228
vt 0.346814 0.969121
vt 0.346349 0.958230
vt 0.497128 0.959049
vt 0.497593 0.969940
vt 0.338638 0.371169
vt 0.335449 0.958171
vt 0.198356 0.837201
vt 0.189992 0.370362
vt 0.200892 0.370421
vt 0.510565 0.492328
vt 0.508029 0.959108
vt 0.039213 0.369542
vt 0.038748 0.358651
vt 0.189526 0.359470
vt 0.350122 0.360343
vt 0.638473 0.361910
vt 0.335927 0.837949
vt 0.335274 0.958170
vt 0.186990 0.826251
vt 0.324561 0.826999
vt 0.025122 0.956484
vt 0.028312 0.369483
vn 1.0000 0.0000 0.0000
vn 0.0009 -0.0083 -1.0000
vn 0.0000 -1.0000 0.0000
vn 0.0000 1.0000 0.0000
vn -1.0000 -0.0000 0.0000
vn 0.0000 0.0083 1.0000
vn 0.0031 0.0083 1.0000
vn 0.0000 0.0481 0.9988
vn 0.0000 -0.0481 -0.9988
usemtl Material.001
s off
f 7/1/1 8/2/1 6/3/1 5/4/1
f 3/5/2 4/6/2 9/7/2 10/8/2
f 3/9/3 7/10/3 5/11/3 1/12/3
f 8/13/4 4/14/4 2/15/4 6/16/4
f 4/17/5 3/18/5 1/19/5 2/20/5
f 5/21/6 6/22/6 2/23/6 1/24/6
f 4/14/4 8/13/4 12/25/4 9/26/4
f 10/27/1 9/28/1 12/29/1 11/30/1
f 7/10/3 3/9/3 10/31/3 11/32/3
f 8/33/7 7/34/7 11/35/7 12/36/7
f 28/37/1 20/38/1 18/39/1 27/40/1
f 27/41/8 18/39/8 14/42/8 25/43/8
f 26/44/5 15/45/5 13/46/5 25/47/5
f 15/45/3 19/48/3 17/49/3 13/46/3
f 20/38/4 16/50/4 14/42/4 18/39/4
f 29/51/1 21/52/1 24/53/1 30/54/1
f 26/55/9 16/50/9 21/52/9 29/56/9
f 16/50/4 20/38/4 24/53/4 21/52/4
f 28/57/8 19/48/8 23/58/8 30/59/8
f 20/38/8 28/60/8 30/61/8 24/53/8
f 22/62/1 29/63/1 30/64/1 23/58/1
f 16/50/5 26/65/5 25/66/5 14/42/5
f 19/48/3 15/45/3 22/62/3 23/58/3
f 17/49/8 27/67/8 25/68/8 13/46/8
f 19/48/1 28/69/1 27/70/1 17/49/1
f 15/45/9 26/71/9 29/72/9 22/62/9
