# Blender 3.1.0
# www.blender.org
mtllib ESCADA_MAPEADA.mtl
o Cube.001
v -0.720302 0.266248 1.896758
v -0.724490 0.266248 1.900945
v -0.724490 0.266248 -0.229249
v -0.720302 0.266248 -0.225061
v -1.275867 0.266248 -0.225061
v -1.271680 0.266248 -0.229249
v -1.275867 0.266248 1.896758
v -1.271680 0.266248 1.900945
v -1.271680 0.032442 1.896758
v -1.271680 0.036630 1.900945
v -1.275867 0.036630 1.896758
v -1.271680 0.495866 1.900945
v -1.271680 0.500053 1.896758
v -1.275867 0.495866 1.896758
v -1.271680 0.032442 -0.225061
v -1.275867 0.036630 -0.225061
v -1.271680 0.036630 -0.229249
v -1.271680 0.500053 -0.225061
v -1.271680 0.495866 -0.229249
v -1.275867 0.495866 -0.225061
v -0.724490 0.032442 1.896758
v -0.720302 0.036630 1.896758
v -0.724490 0.036630 1.900945
v -0.724490 0.500053 1.896758
v -0.724490 0.495866 1.900945
v -0.720302 0.495866 1.896758
v -0.724490 0.032442 -0.225061
v -0.724490 0.036630 -0.229249
v -0.720302 0.036630 -0.225061
v -0.724490 0.500053 -0.225061
v -0.720302 0.495866 -0.225061
v -0.724490 0.495866 -0.229249
v -0.676904 0.546799 1.917879
v -0.680801 0.546799 1.921777
v -0.680801 0.546799 -0.255288
v -0.676904 0.546799 -0.251391
v -1.322882 0.546799 -0.251391
v -1.318985 0.546799 -0.255288
v -1.322882 0.546799 1.917879
v -1.318985 0.546799 1.921777
v -1.318985 0.499840 1.917879
v -1.318985 0.503737 1.921777
v -1.322882 0.503737 1.917879
v -1.318985 0.605520 1.921777
v -1.318985 0.609417 1.917879
v -1.322882 0.605520 1.917879
v -1.318985 0.499840 -0.251391
v -1.322882 0.503737 -0.251391
v -1.318985 0.503737 -0.255288
v -1.318985 0.609417 -0.251391
v -1.318985 0.605520 -0.255288
v -1.322882 0.605520 -0.251391
v -0.680801 0.499840 1.917879
v -0.676904 0.503737 1.917879
v -0.680801 0.503737 1.921777
v -0.680801 0.609417 1.917879
v -0.680801 0.605520 1.921777
v -0.676904 0.605520 1.917879
v -0.680801 0.499840 -0.251391
v -0.680801 0.503737 -0.255288
v -0.676904 0.503737 -0.251391
v -0.680801 0.609417 -0.251391
v -0.676904 0.605520 -0.251391
v -0.680801 0.605520 -0.255288
vn -0.0000 -0.0000 1.0000
vn 1.0000 -0.0000 -0.0000
vn 0.7071 -0.0000 0.7071
vn -0.0000 1.0000 -0.0000
vn -1.0000 -0.0000 -0.0000
vn -0.0000 -0.0000 -1.0000
vn -0.5773 -0.5773 0.5774
vn -0.5774 0.5774 0.5774
vn -0.5773 -0.5773 -0.5774
vn -0.5774 0.5773 -0.5774
vn 0.5773 -0.5774 0.5773
vn 0.5773 0.5774 0.5773
vn 0.5774 -0.5773 -0.5774
vn 0.5774 0.5773 -0.5773
vn -0.7071 -0.7071 -0.0000
vn -0.7071 -0.0000 0.7071
vn -0.7071 0.7071 -0.0000
vn -0.7071 -0.0000 -0.7071
vn -0.0000 -0.7071 -0.7071
vn -0.0000 0.7071 -0.7071
vn 0.7071 -0.0000 -0.7071
vn 0.7071 -0.7071 -0.0000
vn 0.7071 0.7071 -0.0000
vn -0.0000 -0.7071 0.7071
vn -0.0000 0.7071 0.7071
vn -0.0000 -1.0000 -0.0000
vn -0.5773 -0.5774 0.5774
vn -0.5773 -0.5774 -0.5774
vn -0.5773 0.5774 -0.5774
vn 0.5774 -0.5774 0.5773
vn 0.5774 0.5774 0.5773
vn 0.5774 -0.5774 -0.5773
vn 0.5774 0.5774 -0.5773
vt 0.315205 0.923769
vt 0.315029 0.916560
vt 0.386598 0.976915
vt 0.315558 0.925744
vt 0.314762 0.918331
vt 0.245709 0.975232
vt 0.375069 0.298001
vt 0.250353 0.299292
vt 0.315205 0.367894
vt 0.252031 0.299544
vt 0.373163 0.298279
vt 0.315029 0.365209
vt 0.597619 0.354258
vt 0.030531 0.356673
vt 0.526226 0.301112
vt 0.030799 0.354901
vt 0.597266 0.352283
vt 0.099852 0.298001
vt 0.597619 0.910133
vt 0.539660 0.979748
vt 0.093529 0.973689
vt 0.030531 0.908023
vt 0.537754 0.980025
vt 0.095208 0.973942
vt 0.104886 0.907089
vt 0.105135 0.909186
vt 0.103326 0.908627
vt 0.094628 0.907140
vt 0.527748 0.912405
vt 0.527983 0.910256
vt 0.529614 0.911819
vt 0.537464 0.910133
vt 0.101403 0.367042
vt 0.098836 0.367294
vt 0.099477 0.365274
vt 0.101379 0.364396
vt 0.524943 0.366987
vt 0.524921 0.364542
vt 0.526887 0.365118
vt 0.527597 0.367175
vt 0.244157 0.906191
vt 0.246724 0.905939
vt 0.246083 0.907958
vt 0.244182 0.908837
vt 0.387881 0.911040
vt 0.385937 0.912909
vt 0.387903 0.913485
vt 0.385227 0.910852
vt 0.240675 0.366144
vt 0.240425 0.364047
vt 0.242235 0.364606
vt 0.250932 0.366093
vt 0.384841 0.367772
vt 0.375360 0.367894
vt 0.383210 0.366208
vt 0.385076 0.365622
vt 0.803525 0.537828
vt 0.783345 0.536700
vt 0.818614 0.549627
vt 0.803740 0.539214
vt 0.783170 0.537991
vt 0.771870 0.546978
vt 0.816222 0.091744
vt 0.770772 0.097529
vt 0.799632 0.108469
vt 0.772058 0.097704
vt 0.814711 0.091992
vt 0.786767 0.109060
vt 0.963466 0.108252
vt 0.640765 0.097401
vt 0.947717 0.093335
vt 0.628136 0.109849
vt 0.946432 0.093145
vt 0.642269 0.097162
vt 0.963466 0.535609
vt 0.947884 0.550610
vt 0.643796 0.547251
vt 0.630422 0.536167
vt 0.946498 0.550818
vt 0.645069 0.547417
vt 0.646324 0.536026
vt 0.646508 0.537752
vt 0.645097 0.537307
vt 0.638885 0.536121
vt 0.944278 0.537396
vt 0.944439 0.535665
vt 0.945683 0.536936
vt 0.951897 0.535609
vt 0.644038 0.109708
vt 0.642664 0.108298
vt 0.636598 0.109804
vt 0.644196 0.107780
vt 0.944438 0.108307
vt 0.944264 0.106566
vt 0.951897 0.108252
vt 0.945688 0.107027
vt 0.771744 0.535353
vt 0.773557 0.535176
vt 0.773089 0.536623
vt 0.771766 0.537736
vt 0.818713 0.535665
vt 0.817406 0.536935
vt 0.818723 0.537860
vt 0.816932 0.535518
vt 0.769457 0.109035
vt 0.769274 0.107299
vt 0.770697 0.107751
vt 0.777555 0.109010
vt 0.818713 0.108308
vt 0.811255 0.108363
vt 0.817334 0.106889
vt 0.818879 0.106370
s 0
usemtl Material.001
f 2/3/1 25/47/1 12/29/1 8/23/1
f 4/9/2 31/54/2 26/48/2 1/1/2
f 25/46/3 2/4/3 1/1/3 26/48/3
f 30/53/4 18/37/4 13/30/4 24/45/4
f 7/19/5 14/32/5 20/40/5 5/13/5
f 6/15/6 19/38/6 32/56/6 3/7/6
f 9/25/7 10/26/7 11/27/7
f 12/29/8 13/30/8 14/31/8
f 15/33/9 16/34/9 17/35/9
f 18/37/10 19/39/10 20/40/10
f 21/41/11 22/42/11 23/43/11
f 24/45/12 25/46/12 26/48/12
f 27/49/13 28/50/13 29/51/13
f 30/53/14 31/55/14 32/56/14
f 15/33/15 9/25/15 11/28/15 16/34/15
f 8/23/16 12/29/16 14/31/16 7/20/16
f 13/30/17 18/37/17 20/40/17 14/32/17
f 6/16/18 17/35/18 16/34/18 5/14/18
f 27/49/19 15/33/19 17/36/19 28/50/19
f 18/37/20 30/53/20 32/56/20 19/38/20
f 4/10/21 29/51/21 28/50/21 3/8/21
f 21/41/22 27/49/22 29/52/22 22/42/22
f 30/53/23 24/45/23 26/48/23 31/54/23
f 2/5/3 23/43/3 22/42/3 1/2/3
f 9/25/24 21/41/24 23/44/24 10/26/24
f 24/45/25 13/30/25 12/29/25 25/47/25
f 15/33/26 27/49/26 21/41/26 9/25/26
f 31/55/21 4/11/21 3/7/21 32/56/21
f 19/39/18 6/17/18 5/13/18 20/40/18
f 10/26/16 8/24/16 7/21/16 11/27/16
f 17/36/6 6/18/6 3/8/6 28/50/6
f 11/28/5 7/22/5 5/14/5 16/34/5
f 29/52/2 4/12/2 1/2/2 22/42/2
f 23/44/1 2/6/1 8/24/1 10/26/1
f 34/59/1 57/103/1 44/85/1 40/79/1
f 36/65/2 63/110/2 58/104/2 33/57/2
f 57/102/3 34/60/3 33/57/3 58/104/3
f 62/109/4 50/93/4 45/86/4 56/101/4
f 39/75/5 46/88/5 52/95/5 37/69/5
f 38/73/6 51/94/6 64/112/6 35/63/6
f 41/81/27 42/82/27 43/83/27
f 44/85/8 45/86/8 46/87/8
f 47/89/28 48/90/28 49/92/28
f 50/93/29 51/94/29 52/96/29
f 53/97/30 54/98/30 55/99/30
f 56/101/31 57/102/31 58/104/31
f 59/105/32 60/106/32 61/107/32
f 62/109/33 63/111/33 64/112/33
f 47/89/15 41/81/15 43/84/15 48/91/15
f 40/79/16 44/85/16 46/87/16 39/76/16
f 45/86/17 50/93/17 52/95/17 46/88/17
f 38/74/18 49/92/18 48/90/18 37/70/18
f 59/105/19 47/89/19 49/92/19 60/106/19
f 50/93/20 62/109/20 64/112/20 51/94/20
f 36/66/21 61/107/21 60/106/21 35/64/21
f 53/97/22 59/105/22 61/108/22 54/98/22
f 62/109/23 56/101/23 58/104/23 63/110/23
f 34/61/3 55/99/3 54/98/3 33/58/3
f 41/81/24 53/97/24 55/100/24 42/82/24
f 56/101/25 45/86/25 44/85/25 57/103/25
f 47/89/26 59/105/26 53/97/26 41/81/26
f 63/111/21 36/67/21 35/63/21 64/112/21
f 51/94/18 38/73/18 37/71/18 52/96/18
f 42/82/16 40/80/16 39/77/16 43/83/16
f 49/92/6 38/74/6 35/64/6 60/106/6
f 43/84/5 39/78/5 37/72/5 48/91/5
f 61/108/2 36/68/2 33/58/2 54/98/2
f 55/100/1 34/62/1 40/80/1 42/82/1
