# Blender 3.1.0
# www.blender.org
mtllib ESCADA GRANDE MAPEADA.mtl
o Cube.005
v 1.430487 0.202566 0.976837
v 1.430487 0.160827 0.976837
v 1.430487 0.202566 1.954214
v 1.430487 0.160827 1.954214
v 1.147200 0.202566 0.976837
v 1.147200 0.160827 0.976837
v 1.147200 0.202566 1.954214
v 1.147200 0.160827 1.954214
v -0.151155 1.062005 0.976837
v -0.151155 1.020266 0.976837
v -0.151155 1.062005 1.954214
v -0.151155 1.020266 1.954214
v -0.912415 1.062005 0.976837
v -0.912415 1.020266 0.976837
v -0.912415 1.062005 1.954214
v -0.912415 1.020266 1.954214
v 0.158667 0.893295 0.976837
v 0.158667 0.851555 0.976837
v 0.158667 0.893295 1.954214
v 0.158667 0.851555 1.954214
v -0.124621 0.893295 0.976837
v -0.124621 0.851555 0.976837
v -0.124621 0.893295 1.954214
v -0.124621 0.851555 1.954214
v -0.127419 1.584381 0.981574
v -0.127419 1.584381 0.939835
v 1.484843 0.677176 0.981574
v 1.484843 0.677176 0.939835
v -0.125660 1.499218 0.981574
v -0.125660 1.499218 0.939835
v 1.485612 0.584663 0.981574
v 1.485612 0.584663 0.939835
v -0.910117 1.600817 0.981574
v -0.910117 1.600817 0.939835
v -0.150544 1.600817 0.981574
v -0.150544 1.600817 0.939835
v -0.910117 1.523180 0.981574
v -0.910117 1.523180 0.939835
v -0.150544 1.523180 0.981574
v -0.150544 1.523180 0.939835
v 1.558091 0.743737 0.915986
v 1.558091 -0.000084 0.915986
v 1.558091 0.743737 1.009122
v 1.558091 -0.000084 1.009122
v 1.483064 0.743737 0.915986
v 1.483064 -0.000084 0.915986
v 1.483064 0.743737 1.009122
v 1.483064 -0.000084 1.009122
v -0.125664 1.647352 0.915986
v -0.125664 1.062398 0.915986
v -0.125664 1.647352 1.009122
v -0.125664 1.062398 1.009122
v -0.200691 1.647352 0.915986
v -0.200691 1.062398 0.915986
v -0.200691 1.647352 1.009122
v -0.200691 1.062398 1.009122
v -0.127419 1.357968 0.981574
v -0.127419 1.357968 0.939835
v 1.484843 0.422583 0.981574
v 1.484843 0.422583 0.939835
v -0.125660 1.308849 0.981574
v -0.125660 1.308849 0.939835
v 1.485612 0.370184 0.981574
v 1.485612 0.370184 0.939835
v -0.910117 1.367250 1.995000
v -0.910117 1.367250 1.953261
v -0.150544 1.367250 1.995000
v -0.150544 1.367250 1.953261
v -0.910117 1.319751 1.995000
v -0.910117 1.319751 1.953261
v -0.150544 1.319751 1.995000
v -0.150544 1.319751 1.953261
v -0.157592 1.173954 0.991329
v -0.157592 1.173954 0.949590
v 1.484598 0.212079 0.991329
v 1.484598 0.212079 0.949590
v -0.158531 0.957537 0.991329
v -0.158531 0.957537 0.949590
v 1.484569 -0.000008 0.991329
v 1.484569 -0.000008 0.949590
v -0.917351 1.176188 0.991329
v -0.917351 1.176188 0.949590
v -0.157777 1.176188 0.991329
v -0.157777 1.176188 0.949590
v -0.917351 0.961953 0.991329
v -0.917351 0.961953 0.949590
v -0.157777 0.961953 0.991329
v -0.157777 0.961953 0.949590
v -0.917350 1.176188 0.991329
v -0.917350 1.176188 0.949590
v -0.157777 1.176188 0.991329
v -0.157777 1.176188 0.949590
v -0.917350 0.961953 0.991329
v -0.917350 0.961953 0.949590
v -0.157777 0.961953 0.991329
v -0.157777 0.961953 0.949590
v -0.917351 1.176188 1.996586
v -0.917351 1.176188 1.954847
v -0.157777 1.176188 1.996586
v -0.157777 1.176188 1.954847
v -0.917351 0.961953 1.996586
v -0.917351 0.961953 1.954847
v -0.157777 0.961953 1.996586
v -0.157777 0.961953 1.954847
v -0.910117 1.367250 0.981574
v -0.910117 1.367250 0.939835
v -0.150544 1.367250 0.981574
v -0.150544 1.367250 0.939835
v -0.910117 1.319751 0.981574
v -0.910117 1.319751 0.939835
v -0.150544 1.319751 0.981574
v -0.150544 1.319751 0.939835
v -0.910117 1.600817 0.981574
v -0.910117 1.600817 0.939835
v -0.150544 1.600817 0.981574
v -0.150544 1.600817 0.939835
v -0.910117 1.523180 0.981574
v -0.910117 1.523180 0.939835
v -0.150544 1.523180 0.981574
v -0.150544 1.523180 0.939835
v -0.910117 1.600817 1.992840
v -0.910117 1.600817 1.951101
v -0.150544 1.600817 1.992840
v -0.150544 1.600817 1.951101
v -0.910117 1.523180 1.992840
v -0.910117 1.523180 1.951101
v -0.150544 1.523180 1.992840
v -0.150544 1.523180 1.951101
v -0.910117 1.600817 1.992840
v -0.910117 1.600817 1.951101
v -0.150544 1.600817 1.992840
v -0.150544 1.600817 1.951101
v -0.910117 1.523180 1.992840
v -0.910117 1.523180 1.951101
v -0.150544 1.523180 1.992840
v -0.150544 1.523180 1.951101
v -0.125664 1.647352 1.926246
v -0.125664 1.062398 1.926246
v -0.125664 1.647352 2.019382
v -0.125664 1.062398 2.019382
v -0.200691 1.647352 1.926246
v -0.200691 1.062398 1.926246
v -0.200691 1.647352 2.019382
v -0.200691 1.062398 2.019382
v -0.127419 1.584381 1.997537
v -0.127419 1.584381 1.955797
v 1.484843 0.677176 1.997537
v 1.484843 0.677176 1.955797
v -0.125660 1.499218 1.997537
v -0.125660 1.499218 1.955797
v 1.485612 0.584663 1.997537
v 1.485612 0.584663 1.955797
v -0.127419 1.357968 1.997537
v -0.127419 1.357968 1.955797
v 1.484843 0.422583 1.997537
v 1.484843 0.422583 1.955797
v -0.125660 1.308849 1.997537
v -0.125660 1.308849 1.955797
v 1.485612 0.370184 1.997537
v 1.485612 0.370184 1.955797
v -0.157592 1.173954 2.007292
v -0.157592 1.173954 1.965552
v 1.484598 0.212079 2.007292
v 1.484598 0.212079 1.965552
v -0.158531 0.957537 2.007292
v -0.158531 0.957537 1.965552
v 1.484569 -0.000008 2.007292
v 1.484569 -0.000008 1.965552
v 1.558091 0.743737 1.940217
v 1.558091 -0.000084 1.940217
v 1.558091 0.743737 2.033354
v 1.558091 -0.000084 2.033354
v 1.483064 0.743737 1.940217
v 1.483064 -0.000084 1.940217
v 1.483064 0.743737 2.033354
v 1.483064 -0.000084 2.033354
v 0.478580 0.742492 0.976837
v 0.478580 0.700753 0.976837
v 0.478580 0.742492 1.954214
v 0.478580 0.700753 1.954214
v 0.195292 0.742492 0.976837
v 0.195292 0.700753 0.976837
v 0.195292 0.742492 1.954214
v 0.195292 0.700753 1.954214
v 0.792461 0.607564 0.976837
v 0.792461 0.565824 0.976837
v 0.792461 0.607564 1.954214
v 0.792461 0.565824 1.954214
v 0.509173 0.607564 0.976837
v 0.509173 0.565824 0.976837
v 0.509173 0.607564 1.954214
v 0.509173 0.565824 1.954214
v 1.114278 0.419722 0.976837
v 1.114278 0.377983 0.976837
v 1.114278 0.419722 1.954214
v 1.114278 0.377983 1.954214
v 0.830991 0.419722 0.976837
v 0.830991 0.377983 0.976837
v 0.830991 0.419722 1.954214
v 0.830991 0.377983 1.954214
vn -0.0000 1.0000 -0.0000
vn -0.0000 -0.0000 1.0000
vn -1.0000 -0.0000 -0.0000
vn -0.0000 -1.0000 -0.0000
vn 1.0000 -0.0000 -0.0000
vn -0.0000 -0.0000 -1.0000
vn 1.0000 0.0083 -0.0000
vn -0.4936 -0.8697 -0.0000
vn 0.4904 0.8715 -0.0000
vn -0.9998 -0.0207 -0.0000
vn 0.9999 0.0147 -0.0000
vn -0.5034 -0.8641 -0.0000
vn 0.5018 0.8650 -0.0000
vn -0.9994 -0.0358 -0.0000
vn 1.0000 -0.0001 -0.0000
vn -0.5035 -0.8640 -0.0000
vn 0.5054 0.8629 -0.0000
vn -1.0000 0.0043 -0.0000
vt 0.711327 0.663943
vt 0.557729 0.665665
vt 0.566940 0.674877
vt 0.566940 0.665665
vt 0.708631 0.448262
vt 0.566941 0.440756
vt 0.557729 0.449968
vt 0.566941 0.449968
vt 0.648812 0.664724
vt 0.638671 0.665665
vt 0.629459 0.674877
vt 0.629459 0.665665
vt 0.646117 0.449043
vt 0.629460 0.440756
vt 0.638671 0.449968
vt 0.629460 0.449968
vt 0.335207 0.316600
vt 0.038533 0.324309
vt 0.046242 0.332017
vt 0.046242 0.324309
vt 0.335207 0.136091
vt 0.046242 0.136091
vt 0.038533 0.143800
vt 0.046242 0.143800
vt 0.194612 0.316600
vt 0.194546 0.324309
vt 0.186836 0.332018
vt 0.186836 0.324309
vt 0.194612 0.136091
vt 0.186837 0.136091
vt 0.194546 0.143800
vt 0.186837 0.143800
vt 0.589206 0.945193
vt 0.435608 0.946915
vt 0.444820 0.956127
vt 0.444820 0.946915
vt 0.586511 0.729511
vt 0.444820 0.722006
vt 0.435608 0.731218
vt 0.444820 0.731218
vt 0.526692 0.945974
vt 0.516550 0.946915
vt 0.507339 0.956127
vt 0.507339 0.946915
vt 0.523997 0.730293
vt 0.507339 0.722006
vt 0.516550 0.731218
vt 0.507339 0.731218
vt 0.034344 0.667820
vt 0.052735 0.948271
vt 0.028052 0.667797
vt 0.037563 0.662413
vt 0.033307 0.946696
vt 0.030156 0.952141
vt 0.051699 0.669398
vt 0.027017 0.946672
vt 0.045378 0.674388
vt 0.051670 0.674388
vt 0.063769 0.941703
vt 0.048597 0.668981
vt 0.045378 0.953680
vt 0.042227 0.959126
vt 0.051670 0.953680
vt 0.063769 0.662413
vt 0.666000 0.038610
vt 0.735379 0.023920
vt 0.651310 0.038610
vt 0.666000 0.023920
vt 0.666000 0.305929
vt 0.666000 0.320618
vt 0.735379 0.291239
vt 0.651310 0.305929
vt 0.693323 0.038610
vt 0.708012 0.038610
vt 0.708055 0.023920
vt 0.693323 0.023920
vt 0.693323 0.305929
vt 0.693323 0.320618
vt 0.708012 0.305929
vt 0.708055 0.291239
vt 0.749896 0.694002
vt 0.805761 0.397309
vt 0.724994 0.669099
vt 0.749896 0.397309
vt 0.805761 0.644197
vt 0.724994 0.422212
vt 0.780810 0.694002
vt 0.805713 0.669099
vt 0.836675 0.397309
vt 0.805713 0.422212
vt 0.780810 0.397309
vt 0.836675 0.644197
vt 0.749896 0.669099
vt 0.749896 0.422212
vt 0.780810 0.669099
vt 0.780810 0.422212
vt 0.882745 0.321714
vt 0.950677 0.025026
vt 0.852460 0.291429
vt 0.882744 0.025026
vt 0.950677 0.261144
vt 0.852460 0.055311
vt 0.920339 0.321714
vt 0.950624 0.291429
vt 0.988272 0.025026
vt 0.950624 0.055311
vt 0.920339 0.025026
vt 0.988272 0.261144
vt 0.882745 0.291429
vt 0.882744 0.055311
vt 0.920339 0.291429
vt 0.920339 0.055311
vt 0.304941 0.653199
vt 0.318065 0.933835
vt 0.298629 0.653188
vt 0.308312 0.647862
vt 0.304436 0.935083
vt 0.301179 0.940490
vt 0.317561 0.651952
vt 0.298123 0.935072
vt 0.311226 0.657168
vt 0.317537 0.657168
vt 0.324349 0.929865
vt 0.314596 0.651831
vt 0.311225 0.939172
vt 0.307968 0.944579
vt 0.317537 0.939172
vt 0.324349 0.647862
vt 0.452860 0.045533
vt 0.501021 0.030843
vt 0.438171 0.045533
vt 0.452860 0.030843
vt 0.452860 0.312858
vt 0.452860 0.327547
vt 0.501021 0.298168
vt 0.438171 0.312858
vt 0.469577 0.045533
vt 0.484267 0.045533
vt 0.484304 0.030843
vt 0.469577 0.030843
vt 0.469577 0.312858
vt 0.469577 0.327547
vt 0.484267 0.312858
vt 0.484304 0.298168
vt 0.252790 0.946428
vt 0.285450 0.654871
vt 0.258737 0.946428
vt 0.249806 0.951573
vt 0.252790 0.675271
vt 0.255794 0.670140
vt 0.285450 0.926028
vt 0.258737 0.675271
vt 0.226115 0.930960
vt 0.220169 0.930947
vt 0.258776 0.670339
vt 0.223132 0.936104
vt 0.226713 0.660003
vt 0.229718 0.654871
vt 0.220766 0.659990
vt 0.259374 0.941297
vt 0.045831 0.395858
vt 0.128910 0.608521
vt 0.034121 0.395858
vt 0.045831 0.384147
vt 0.045831 0.608969
vt 0.045831 0.620679
vt 0.127297 0.395417
vt 0.034120 0.608969
vt 0.105938 0.395858
vt 0.117649 0.395858
vt 0.189015 0.608067
vt 0.105938 0.384147
vt 0.105938 0.608969
vt 0.105938 0.620679
vt 0.117649 0.608969
vt 0.187403 0.394962
vt 0.045831 0.395858
vt 0.128910 0.608521
vt 0.034121 0.395858
vt 0.045831 0.384147
vt 0.045831 0.608969
vt 0.045831 0.620679
vt 0.127297 0.395417
vt 0.034120 0.608969
vt 0.105938 0.395858
vt 0.117649 0.395858
vt 0.189015 0.608067
vt 0.105938 0.384147
vt 0.105938 0.608969
vt 0.105938 0.620679
vt 0.117649 0.608969
vt 0.187403 0.394962
vt 0.219420 0.392178
vt 0.302498 0.604841
vt 0.207709 0.392178
vt 0.219420 0.380467
vt 0.219420 0.605289
vt 0.219420 0.616999
vt 0.300886 0.391736
vt 0.207709 0.605289
vt 0.279527 0.392178
vt 0.291238 0.392178
vt 0.362604 0.604387
vt 0.279527 0.380467
vt 0.279527 0.605289
vt 0.279527 0.616999
vt 0.291238 0.605289
vt 0.360992 0.391282
vt 0.375773 0.045533
vt 0.423933 0.030843
vt 0.361083 0.045533
vt 0.375773 0.030843
vt 0.375773 0.312858
vt 0.375773 0.327547
vt 0.423933 0.298168
vt 0.361083 0.312858
vt 0.392490 0.045533
vt 0.407179 0.045533
vt 0.407216 0.030843
vt 0.392490 0.030843
vt 0.392490 0.312858
vt 0.392490 0.327547
vt 0.407179 0.312858
vt 0.407216 0.298168
vt 0.666000 0.038610
vt 0.735379 0.023920
vt 0.651310 0.038610
vt 0.666000 0.023920
vt 0.666000 0.305929
vt 0.666000 0.320618
vt 0.735379 0.291239
vt 0.651310 0.305929
vt 0.693323 0.038610
vt 0.708012 0.038610
vt 0.708055 0.023920
vt 0.693323 0.023920
vt 0.693323 0.305929
vt 0.693323 0.320618
vt 0.708012 0.305929
vt 0.708055 0.291239
vt 0.768384 0.034930
vt 0.837762 0.020240
vt 0.753694 0.034930
vt 0.768384 0.020240
vt 0.768384 0.302249
vt 0.768384 0.316938
vt 0.837762 0.287559
vt 0.753694 0.302249
vt 0.795707 0.034930
vt 0.810396 0.034930
vt 0.810439 0.020240
vt 0.795707 0.020240
vt 0.795707 0.302249
vt 0.795707 0.316938
vt 0.810396 0.302249
vt 0.810439 0.287559
vt 0.768384 0.034930
vt 0.837762 0.020240
vt 0.753694 0.034930
vt 0.768384 0.020240
vt 0.768384 0.302249
vt 0.768384 0.316938
vt 0.837762 0.287559
vt 0.753694 0.302249
vt 0.795707 0.034930
vt 0.810396 0.034930
vt 0.810439 0.020240
vt 0.795707 0.020240
vt 0.795707 0.302249
vt 0.795707 0.316938
vt 0.810396 0.302249
vt 0.810439 0.287559
vt 0.882531 0.673759
vt 0.950464 0.377071
vt 0.852246 0.643474
vt 0.882531 0.377071
vt 0.950463 0.613189
vt 0.852246 0.407356
vt 0.920126 0.673759
vt 0.950411 0.643474
vt 0.988059 0.377071
vt 0.950411 0.407356
vt 0.920126 0.377071
vt 0.988059 0.613189
vt 0.882531 0.643474
vt 0.882531 0.407356
vt 0.920126 0.643474
vt 0.920126 0.407356
vt 0.092302 0.662034
vt 0.110693 0.942484
vt 0.086010 0.662011
vt 0.095520 0.656627
vt 0.091265 0.940909
vt 0.088114 0.946355
vt 0.109656 0.663612
vt 0.084974 0.940886
vt 0.103336 0.668602
vt 0.109627 0.668602
vt 0.121726 0.935917
vt 0.106554 0.663195
vt 0.103335 0.947894
vt 0.100184 0.953340
vt 0.109627 0.947894
vt 0.121726 0.656627
vt 0.344373 0.650278
vt 0.357497 0.930914
vt 0.338060 0.650267
vt 0.347743 0.644941
vt 0.343868 0.932162
vt 0.340611 0.937569
vt 0.356993 0.649031
vt 0.337555 0.932151
vt 0.350657 0.654247
vt 0.356969 0.654247
vt 0.363781 0.926945
vt 0.354028 0.648910
vt 0.350656 0.936251
vt 0.347399 0.941658
vt 0.356969 0.936251
vt 0.363781 0.644941
vt 0.171190 0.950771
vt 0.203850 0.659213
vt 0.177137 0.950771
vt 0.168206 0.955915
vt 0.171189 0.679614
vt 0.174194 0.674482
vt 0.203850 0.930370
vt 0.177137 0.679614
vt 0.144516 0.935302
vt 0.138569 0.935289
vt 0.177176 0.674682
vt 0.141532 0.940446
vt 0.145113 0.664345
vt 0.148118 0.659213
vt 0.139166 0.664332
vt 0.177774 0.945639
vt 0.546097 0.327450
vt 0.601962 0.030757
vt 0.521195 0.302547
vt 0.546097 0.030757
vt 0.601962 0.277644
vt 0.521194 0.055660
vt 0.577011 0.327450
vt 0.601913 0.302547
vt 0.632875 0.030757
vt 0.601913 0.055660
vt 0.577011 0.030757
vt 0.632875 0.277644
vt 0.546097 0.302547
vt 0.546097 0.055660
vt 0.577011 0.302547
vt 0.577011 0.055660
vt 0.775691 0.945193
vt 0.622094 0.946915
vt 0.631305 0.956127
vt 0.631305 0.946915
vt 0.772996 0.729511
vt 0.631306 0.722006
vt 0.622094 0.731218
vt 0.631306 0.731218
vt 0.713177 0.945974
vt 0.703036 0.946915
vt 0.693824 0.956127
vt 0.693824 0.946915
vt 0.710482 0.730293
vt 0.693824 0.722006
vt 0.703036 0.731218
vt 0.693824 0.731218
vt 0.959081 0.945193
vt 0.805483 0.946915
vt 0.814695 0.956127
vt 0.814695 0.946915
vt 0.956386 0.729511
vt 0.814695 0.722006
vt 0.805483 0.731218
vt 0.814695 0.731218
vt 0.896567 0.945974
vt 0.886425 0.946915
vt 0.877214 0.956127
vt 0.877214 0.946915
vt 0.893872 0.730293
vt 0.877214 0.722006
vt 0.886425 0.731218
vt 0.877214 0.731218
vt 0.542062 0.663943
vt 0.388464 0.665665
vt 0.397676 0.674877
vt 0.397676 0.665665
vt 0.539367 0.448262
vt 0.397676 0.440756
vt 0.388464 0.449968
vt 0.397676 0.449968
vt 0.479547 0.664724
vt 0.469406 0.665665
vt 0.460194 0.674877
vt 0.460194 0.665665
vt 0.476852 0.449043
vt 0.460195 0.440756
vt 0.469406 0.449968
vt 0.460195 0.449968
s 0
usemtl Material
f 1/1/1 5/9/1 7/13/1 3/5/1
f 4/8/2 3/6/2 7/14/2 8/16/2
f 8/16/3 7/15/3 5/10/3 6/12/3
f 6/12/4 2/4/4 4/8/4 8/16/4
f 2/4/5 1/2/5 3/7/5 4/8/5
f 6/12/6 5/11/6 1/3/6 2/4/6
f 9/17/1 13/25/1 15/29/1 11/21/1
f 12/24/2 11/22/2 15/30/2 16/32/2
f 16/32/3 15/31/3 13/26/3 14/28/3
f 14/28/4 10/20/4 12/24/4 16/32/4
f 10/20/5 9/18/5 11/23/5 12/24/5
f 14/28/6 13/27/6 9/19/6 10/20/6
f 17/33/1 21/41/1 23/45/1 19/37/1
f 20/40/2 19/38/2 23/46/2 24/48/2
f 24/48/3 23/47/3 21/42/3 22/44/3
f 22/44/4 18/36/4 20/40/4 24/48/4
f 18/36/5 17/34/5 19/39/5 20/40/5
f 22/44/6 21/43/6 17/35/6 18/36/6
f 25/49/2 29/57/2 31/61/2 27/53/2
f 28/54/7 27/53/7 31/61/7 32/62/7
f 32/63/8 31/61/8 29/57/8 30/58/8
f 30/59/6 26/50/6 28/55/6 32/64/6
f 26/51/9 25/49/9 27/53/9 28/56/9
f 30/60/10 29/57/10 25/49/10 26/52/10
f 33/65/2 37/73/2 39/77/2 35/69/2
f 36/70/5 35/69/5 39/77/5 40/78/5
f 40/79/4 39/77/4 37/73/4 38/74/4
f 38/75/6 34/66/6 36/71/6 40/80/6
f 34/67/1 33/65/1 35/69/1 36/72/1
f 38/76/3 37/73/3 33/65/3 34/68/3
f 41/81/1 45/93/1 47/95/1 43/87/1
f 44/90/2 43/88/2 47/95/2 48/96/2
f 48/96/3 47/95/3 45/93/3 46/94/3
f 46/94/4 42/84/4 44/91/4 48/96/4
f 42/85/5 41/82/5 43/89/5 44/92/5
f 46/94/6 45/93/6 41/83/6 42/86/6
f 49/97/1 53/109/1 55/111/1 51/103/1
f 52/106/2 51/104/2 55/111/2 56/112/2
f 56/112/3 55/111/3 53/109/3 54/110/3
f 54/110/4 50/100/4 52/107/4 56/112/4
f 50/101/5 49/98/5 51/105/5 52/108/5
f 54/110/6 53/109/6 49/99/6 50/102/6
f 57/113/2 61/121/2 63/125/2 59/117/2
f 60/118/11 59/117/11 63/125/11 64/126/11
f 64/127/12 63/125/12 61/121/12 62/122/12
f 62/123/6 58/114/6 60/119/6 64/128/6
f 58/115/13 57/113/13 59/117/13 60/120/13
f 62/124/14 61/121/14 57/113/14 58/116/14
f 65/129/2 69/137/2 71/141/2 67/133/2
f 68/134/5 67/133/5 71/141/5 72/142/5
f 72/143/4 71/141/4 69/137/4 70/138/4
f 70/139/6 66/130/6 68/135/6 72/144/6
f 66/131/1 65/129/1 67/133/1 68/136/1
f 70/140/3 69/137/3 65/129/3 66/132/3
f 73/145/2 77/153/2 79/157/2 75/149/2
f 76/150/15 75/149/15 79/157/15 80/158/15
f 80/159/16 79/157/16 77/153/16 78/154/16
f 78/155/6 74/146/6 76/151/6 80/160/6
f 74/147/17 73/145/17 75/149/17 76/152/17
f 78/156/18 77/153/18 73/145/18 74/148/18
f 81/161/2 85/169/2 87/173/2 83/165/2
f 84/166/5 83/165/5 87/173/5 88/174/5
f 88/175/4 87/173/4 85/169/4 86/170/4
f 86/171/6 82/162/6 84/167/6 88/176/6
f 82/163/1 81/161/1 83/165/1 84/168/1
f 86/172/3 85/169/3 81/161/3 82/164/3
f 89/177/2 93/185/2 95/189/2 91/181/2
f 92/182/5 91/181/5 95/189/5 96/190/5
f 96/191/4 95/189/4 93/185/4 94/186/4
f 94/187/6 90/178/6 92/183/6 96/192/6
f 90/179/1 89/177/1 91/181/1 92/184/1
f 94/188/3 93/185/3 89/177/3 90/180/3
f 97/193/2 101/201/2 103/205/2 99/197/2
f 100/198/5 99/197/5 103/205/5 104/206/5
f 104/207/4 103/205/4 101/201/4 102/202/4
f 102/203/6 98/194/6 100/199/6 104/208/6
f 98/195/1 97/193/1 99/197/1 100/200/1
f 102/204/3 101/201/3 97/193/3 98/196/3
f 105/209/2 109/217/2 111/221/2 107/213/2
f 108/214/5 107/213/5 111/221/5 112/222/5
f 112/223/4 111/221/4 109/217/4 110/218/4
f 110/219/6 106/210/6 108/215/6 112/224/6
f 106/211/1 105/209/1 107/213/1 108/216/1
f 110/220/3 109/217/3 105/209/3 106/212/3
f 113/225/2 117/233/2 119/237/2 115/229/2
f 116/230/5 115/229/5 119/237/5 120/238/5
f 120/239/4 119/237/4 117/233/4 118/234/4
f 118/235/6 114/226/6 116/231/6 120/240/6
f 114/227/1 113/225/1 115/229/1 116/232/1
f 118/236/3 117/233/3 113/225/3 114/228/3
f 121/241/2 125/249/2 127/253/2 123/245/2
f 124/246/5 123/245/5 127/253/5 128/254/5
f 128/255/4 127/253/4 125/249/4 126/250/4
f 126/251/6 122/242/6 124/247/6 128/256/6
f 122/243/1 121/241/1 123/245/1 124/248/1
f 126/252/3 125/249/3 121/241/3 122/244/3
f 129/257/2 133/265/2 135/269/2 131/261/2
f 132/262/5 131/261/5 135/269/5 136/270/5
f 136/271/4 135/269/4 133/265/4 134/266/4
f 134/267/6 130/258/6 132/263/6 136/272/6
f 130/259/1 129/257/1 131/261/1 132/264/1
f 134/268/3 133/265/3 129/257/3 130/260/3
f 137/273/1 141/285/1 143/287/1 139/279/1
f 140/282/2 139/280/2 143/287/2 144/288/2
f 144/288/3 143/287/3 141/285/3 142/286/3
f 142/286/4 138/276/4 140/283/4 144/288/4
f 138/277/5 137/274/5 139/281/5 140/284/5
f 142/286/6 141/285/6 137/275/6 138/278/6
f 145/289/2 149/297/2 151/301/2 147/293/2
f 148/294/7 147/293/7 151/301/7 152/302/7
f 152/303/8 151/301/8 149/297/8 150/298/8
f 150/299/6 146/290/6 148/295/6 152/304/6
f 146/291/9 145/289/9 147/293/9 148/296/9
f 150/300/10 149/297/10 145/289/10 146/292/10
f 153/305/2 157/313/2 159/317/2 155/309/2
f 156/310/11 155/309/11 159/317/11 160/318/11
f 160/319/12 159/317/12 157/313/12 158/314/12
f 158/315/6 154/306/6 156/311/6 160/320/6
f 154/307/13 153/305/13 155/309/13 156/312/13
f 158/316/14 157/313/14 153/305/14 154/308/14
f 161/321/2 165/329/2 167/333/2 163/325/2
f 164/326/15 163/325/15 167/333/15 168/334/15
f 168/335/16 167/333/16 165/329/16 166/330/16
f 166/331/6 162/322/6 164/327/6 168/336/6
f 162/323/17 161/321/17 163/325/17 164/328/17
f 166/332/18 165/329/18 161/321/18 162/324/18
f 169/337/1 173/349/1 175/351/1 171/343/1
f 172/346/2 171/344/2 175/351/2 176/352/2
f 176/352/3 175/351/3 173/349/3 174/350/3
f 174/350/4 170/340/4 172/347/4 176/352/4
f 170/341/5 169/338/5 171/345/5 172/348/5
f 174/350/6 173/349/6 169/339/6 170/342/6
f 177/353/1 181/361/1 183/365/1 179/357/1
f 180/360/2 179/358/2 183/366/2 184/368/2
f 184/368/3 183/367/3 181/362/3 182/364/3
f 182/364/4 178/356/4 180/360/4 184/368/4
f 178/356/5 177/354/5 179/359/5 180/360/5
f 182/364/6 181/363/6 177/355/6 178/356/6
f 185/369/1 189/377/1 191/381/1 187/373/1
f 188/376/2 187/374/2 191/382/2 192/384/2
f 192/384/3 191/383/3 189/378/3 190/380/3
f 190/380/4 186/372/4 188/376/4 192/384/4
f 186/372/5 185/370/5 187/375/5 188/376/5
f 190/380/6 189/379/6 185/371/6 186/372/6
f 193/385/1 197/393/1 199/397/1 195/389/1
f 196/392/2 195/390/2 199/398/2 200/400/2
f 200/400/3 199/399/3 197/394/3 198/396/3
f 198/396/4 194/388/4 196/392/4 200/400/4
f 194/388/5 193/386/5 195/391/5 196/392/5
f 198/396/6 197/395/6 193/387/6 194/388/6
