# Blender v2.91.0 OBJ File: 'PAREDE LATERAL III.blend'
# www.blender.org
mtllib PAREDE LATERAL III.mtl
o Cube_Cube.044
v -1.356499 -0.000048 -1.991487
v -1.356499 1.542400 -1.991487
v -1.356499 -0.000048 -2.019192
v -1.356499 1.542400 -2.019192
v 1.646073 -0.000048 -1.991487
v 1.646073 1.542400 -1.991487
v 1.646073 -0.000048 -2.019192
v 1.646073 1.542400 -2.019192
vt 0.496246 0.951380
vt 0.016439 0.951379
vt 0.016439 0.942761
vt 0.496246 0.942761
vt 0.016439 0.008756
vt 0.496246 0.008756
vt 0.016439 0.000138
vt 0.496246 0.000138
vt 0.999862 0.948222
vt 0.512823 0.948222
vt 0.512823 0.000138
vt 0.999862 0.000138
vt 0.512547 0.008654
vt 0.512547 0.942659
vt 0.000138 0.942864
vt 0.000138 0.008859
vn -1.0000 0.0000 0.0000
vn 0.0000 0.0000 -1.0000
vn 1.0000 0.0000 0.0000
vn 0.0000 0.0000 1.0000
vn 0.0000 -1.0000 0.0000
vn 0.0000 1.0000 0.0000
usemtl None
s off
f 1/1/1 2/2/1 4/3/1 3/4/1
f 3/4/2 4/3/2 8/5/2 7/6/2
f 7/6/3 8/5/3 6/7/3 5/8/3
f 5/9/4 6/10/4 2/11/4 1/12/4
f 3/4/5 7/6/5 5/13/5 1/14/5
f 8/5/6 4/3/6 2/15/6 6/16/6
