# Blender v2.91.0 OBJ File: 'PAREDE LATERA II.blend'
# www.blender.org
mtllib PAREDE LATERA II.mtl
o Cube
v 1.608886 0.019107 1.152830
v 1.608886 1.544457 1.152830
v 1.608886 0.019107 -2.001500
v 1.608886 1.544457 -2.001500
v 1.645985 0.019107 1.152830
v 1.645985 1.544457 1.152830
v 1.645985 0.019107 -2.001500
v 1.645985 1.544457 -2.001500
v 1.608886 0.254023 1.152830
v 1.608886 0.254023 -2.001500
v 1.645985 0.254023 -2.001500
v 1.645985 0.254023 1.152830
v 1.608886 0.967348 1.152830
v 1.608886 0.967348 -2.001500
v 1.645985 0.967348 -2.001500
v 1.645985 0.967348 1.152830
v 1.608886 0.019107 -0.601368
v 1.608886 1.544457 -0.601368
v 1.645985 0.019107 -0.601368
v 1.645985 1.544457 -0.601368
v 1.645985 0.254023 -0.601368
v 1.608886 0.254023 -0.601368
v 1.645985 0.967348 -0.601368
v 1.608886 0.967348 -0.601368
v 1.608886 0.019107 -0.539220
v 1.645985 1.544457 -0.539220
v 1.645985 0.254023 -0.539220
v 1.645985 0.967348 -0.539220
v 1.608886 1.544457 -0.539220
v 1.645985 0.019107 -0.539220
v 1.608886 0.254023 -0.539220
v 1.608886 0.967348 -0.539220
v 1.608886 0.019107 -0.320759
v 1.645985 1.544457 -0.320759
v 1.645985 0.260772 -0.320759
v 1.645985 0.967348 -0.320759
v 1.608886 1.544457 -0.320759
v 1.645985 0.019107 -0.320759
v 1.608886 0.260772 -0.320759
v 1.608886 0.967348 -0.320759
v 1.608886 0.019107 0.263987
v 1.645985 1.544457 0.263987
v 1.645985 0.260772 0.263987
v 1.645985 0.967348 0.263987
v 1.608886 1.544457 0.263987
v 1.645985 0.019107 0.263987
v 1.608886 0.260772 0.263987
v 1.608886 0.967348 0.263987
vt 0.790350 0.522653
vt 0.962251 0.522653
vt 0.962252 0.939705
vt 0.790350 0.939705
vt 0.329458 0.038924
vt 0.472494 0.100943
vt 0.463572 0.107691
vt 0.326676 0.048966
vt 0.315463 0.719610
vt 0.495727 0.710814
vt 0.495524 0.983682
vt 0.319009 0.984861
vt 0.495594 0.995029
vt 0.319081 0.996108
vt 0.006982 0.713512
vt 0.018446 0.713008
vt 0.032057 0.988461
vt 0.020557 0.989028
vt 0.506987 0.710843
vt 0.506913 0.983685
vt 0.104446 0.986003
vt 0.104674 0.997300
vt 0.032468 0.999863
vt 0.088437 0.708044
vt 0.051468 0.000137
vt 0.122625 0.007840
vt 0.121251 0.018821
vt 0.050252 0.011374
vt 0.507901 0.522653
vt 0.577875 0.522653
vt 0.577875 0.939705
vt 0.507901 0.939705
vt 0.577875 0.504141
vt 0.790350 0.504141
vt 0.316166 0.455718
vt 0.087385 0.447179
vt 0.507901 0.504141
vt 0.014038 0.444552
vt 0.506823 0.455331
vt 0.496824 0.455726
vt 0.038767 0.010411
vt 0.002441 0.443854
vt 0.962252 0.504141
vt 0.790350 0.439069
vt 0.962251 0.439069
vt 0.507901 0.439069
vt 0.579885 0.439069
vt 0.316108 0.475439
vt 0.086600 0.466729
vt 0.013212 0.464064
vt 0.507628 0.473382
vt 0.497059 0.473695
vt 0.001455 0.463645
vt 0.315605 0.540397
vt 0.302845 0.707273
vt 0.306554 0.552595
vt 0.507901 0.264893
vt 0.579885 0.264893
vt 0.790350 0.264893
vt 0.962251 0.264893
vt 0.084907 0.533915
vt 0.011737 0.533182
vt 0.507628 0.535304
vt 0.496824 0.535254
vt 0.000137 0.533246
vt 0.790350 0.000137
vt 0.962251 0.000137
vt 0.507901 0.000137
vt 0.577874 0.000137
vt 0.306305 0.552520
vt 0.096164 0.545561
vt 0.095902 0.545653
vt 0.097892 0.697739
vt 0.098027 0.697895
vt 0.302554 0.707377
vn -1.0000 0.0000 0.0000
vn 0.0000 0.0000 -1.0000
vn 1.0000 0.0000 0.0000
vn 0.0000 0.0000 1.0000
vn 0.0000 -1.0000 0.0000
vn 0.0000 1.0000 0.0000
usemtl None
s off
f 24/1/1 18/2/1 4/3/1 14/4/1
f 14/5/2 4/6/2 8/7/2 15/8/2
f 44/9/3 42/10/3 6/11/3 16/12/3
f 16/12/4 6/11/4 2/13/4 13/14/4
f 41/15/5 46/16/5 5/17/5 1/18/5
f 42/10/6 45/19/6 2/20/6 6/11/6
f 5/17/4 12/21/4 9/22/4 1/23/4
f 46/16/3 43/24/3 12/21/3 5/17/3
f 3/25/2 10/26/2 11/27/2 7/28/2
f 17/29/1 22/30/1 10/31/1 3/32/1
f 12/21/4 16/12/4 13/14/4 9/22/4
f 43/24/3 44/9/3 16/12/3 12/21/3
f 10/26/2 14/5/2 15/8/2 11/27/2
f 22/30/1 24/1/1 14/4/1 10/31/1
f 31/33/1 32/34/1 24/1/1 22/30/1
f 11/27/3 15/8/3 23/35/3 21/36/3
f 25/37/1 31/33/1 22/30/1 17/29/1
f 7/28/3 11/27/3 21/36/3 19/38/3
f 8/7/6 4/6/6 18/39/6 20/40/6
f 3/41/5 7/28/5 19/38/5 17/42/5
f 15/8/3 8/7/3 20/40/3 23/35/3
f 32/34/1 29/43/1 18/2/1 24/1/1
f 40/44/1 37/45/1 29/43/1 32/34/1
f 33/46/1 39/47/1 31/33/1 25/37/1
f 39/47/1 40/44/1 32/34/1 31/33/1
f 21/36/3 23/35/3 28/48/3 27/49/3
f 19/38/3 21/36/3 27/49/3 30/50/3
f 20/40/6 18/39/6 29/51/6 26/52/6
f 17/42/5 19/38/5 30/50/5 25/53/5
f 23/35/3 20/40/3 26/52/3 28/48/3
f 36/54/5 44/9/5 48/55/5 40/56/5
f 41/57/1 47/58/1 39/47/1 33/46/1
f 48/59/1 45/60/1 37/45/1 40/44/1
f 27/49/3 28/48/3 36/54/3 35/61/3
f 30/50/3 27/49/3 35/61/3 38/62/3
f 26/52/6 29/51/6 37/63/6 34/64/6
f 25/53/5 30/50/5 38/62/5 33/65/5
f 28/48/3 26/52/3 34/64/3 36/54/3
f 13/66/1 2/67/1 45/60/1 48/59/1
f 1/68/1 9/69/1 47/58/1 41/57/1
f 9/69/1 13/66/1 48/59/1 47/58/1
f 35/61/4 36/54/4 40/70/4 39/71/4
f 38/62/3 35/61/3 43/24/3 46/16/3
f 34/64/6 37/63/6 45/19/6 42/10/6
f 33/65/5 38/62/5 46/16/5 41/15/5
f 36/54/3 34/64/3 42/10/3 44/9/3
f 43/24/6 35/61/6 39/72/6 47/73/6
f 44/9/2 43/24/2 47/74/2 48/75/2
